# xmcd
#
# Track frame offsets:
#	150
#	8502
#	20761
#	33441
#	45063
#	58652
#	71734
#	84116
#	96107
#	112090
#	125769
#	138091
#
# Disc length: 2002 seconds
#
# Revision: 0
# Processed by: cddbd v1.5.2PL0 Copyright (c) Steve Scherf et al.
# Submitted via: dBpowerAMP V4.0
#
DISCID=9307d00c
DTITLE=Legendary Country (Various) - The Roots of Country
DYEAR=1900
DGENRE=Country
TTITLE0=Johnny Cash - Guess Things Happen That Way
TTITLE1=Eddy Arnold - I'll Hold You In My Heart (Till I Can Hold You In My Arms)
TTITLE2=Hank Snow - I'm Movin' On
TTITLE3=Hank Williams - Kaw-Liga
TTITLE4=Merle Travis - Divorce Me C.O.D.
TTITLE5=Tex Williams - Smoke! Smoke! Smoke! (That Cigarette)
TTITLE6=Red Foley - Chattanoogie Shoe Shine Boy
TTITLE7=Gene Autry - (I've Got Spurs That) Jingle, Jangle, Jingle
TTITLE8=The Monroe Brothers - On The Banks Of The Ohio
TTITLE9=Bill Monroe and His Blue Grass Boys - Blue Moon Of Kentucky
TTITLE10=The Blue Sky Boys - Are You From Dixie?
TTITLE11=Lester Flatt and Earl Scruggs - Foggy Mountain Breakdown
EXTD=Legendary Country, disc 3 of 4, 2006, Direct Source Special Products Inc
EXTT0=
EXTT1=
EXTT2=
EXTT3=
EXTT4=
EXTT5=
EXTT6=
EXTT7=
EXTT8=
EXTT9=
EXTT10=
EXTT11=
PLAYORDER=
